# xmcd
#
# Track frame offsets: 
#        150
#        20542
#        39839
#        52491
#        77783
#        94753
#        116366
#        138408
#        155407
#        177862
#        199187
#        213100
#        231464
#        253913
#        275944
#        296290
#        312496
#
# Disc length: 4421 seconds
#
# Revision: 0
# Processed by: cddbd v1.5.2PL0 Copyright (c) Steve Scherf et al.
# Submitted via: ExactAudioCopy v1.0b3
#
DISCID=fc114311
DTITLE=Various Artist - 3. DarkFlower Live Night
DYEAR=2012
DGENRE=A Cappella
TTITLE0=Any Second - Keine Zeit
TTITLE1=AlterRed - In Recovery
TTITLE2=Nova-Spes - Always Death (DarkFlower Mix)
TTITLE3=Deied - A Shell Full Of Scars (Mach Fox Remix)
TTITLE4=Burntime - Noch Mehr
TTITLE5=Radarfield - Sea Drones
TTITLE6=Neon Zoo - Purity
TTITLE7=Deadtronic - Ethno
TTITLE8=Enter And Fall - Aufsicht Ost
TTITLE9=Waiting In Vaine - Inane
TTITLE10=Tonchirurgie - Traum
TTITLE11=Schwarzbund - Der Mensch Tanzt (SBS RMX)
TTITLE12=Eternal Nightmare - Mothearth
TTITLE13=Roboton - Cheap Talk
TTITLE14=EGOamp - Holstenwall (Andyage Remix)
TTITLE15=Hammerschlag - Untermensch
TTITLE16=Gehirnschrauber - Hardcore-Superstare
EXTD=
EXTT0=
EXTT1=
EXTT2=
EXTT3=
EXTT4=
EXTT5=
EXTT6=
EXTT7=
EXTT8=
EXTT9=
EXTT10=
EXTT11=
EXTT12=
EXTT13=
EXTT14=
EXTT15=
EXTT16=
PLAYORDER=
